
<global>
amp_veltrack=0
ampeg_release=3.25
</global>

<group>
group_label=PP
lpc_hicc1=42
lpc_locc1=0

<region>
hikey=A3
hivel=127
lokey=G#3
lovel=1
lpc=HEStQ7fqZMTGKDhESYaNwwPvp0MZtlnDth5mwcNMM0I3u4PCnTu1wH3AGUL7+0HCnFyFQuHnokH8+z/Ca9gtQoKuHMLjamTBtGWUQU3w6kCnMALBGYRoQFt/3cDxfrBA
lpc_rms=-39.19
offset=7853
pitch_keycenter=G#3
sample=Basstrombone_quarter_PP_G#4.opus
tune=-19
</region>

<region>
hikey=A2
hivel=127
lokey=G#2
lovel=1
lpc=5kBkQ5NTEcRP59hDHzX9wme/HUPYDsvCoyDGwWkq2UGHyJzB0jOlwIi+xz9YO+nAS98OQrVTlMCH8ejB777hQcL8tsB8DITBK34vQJeKnEFtKzPBY5qpP3JKJ8Fi2ANB
lpc_rms=-43.74
offset=12352
pitch_keycenter=G#2
sample=Basstrombone_quarter_PP_G#3.opus
tune=-20
</region>

<region>
hikey=A1
hivel=127
lokey=G#1
lovel=1
lpc=UhkHQykzosOnh09DOVXBwQohckLRLD/CqA9QwXvh6kDeEsq+CBKXwE7oQcBcF4FApo20QMWowT2wee29Vfy/PjsCrsCaCos/1fQjP6XSY0CMz0tAHjSVwBez58CVLM1A
lpc_rms=-49.69
offset=14587
pitch_keycenter=G#1
sample=Basstrombone_quarter_PP_G#2.opus
tune=-11
</region>

<region>
hikey=G3
hivel=127
lokey=F#3
lovel=1
lpc=Q7BCQ+0A9cMOIaZDz0VOwrvi5kLW9prCX7kSwiBS/UC56f7AQg5wPz5mqkE1QKfBff8KQQdNZUG5o1nB8PM4QWUVm8Ad4QPBb+WtQEiZSsDAvg/AJGtqQboTd8ECT61A
lpc_rms=-46.15
offset=10145
pitch_keycenter=F#3
sample=Basstrombone_quarter_PP_F#4.opus
tune=-47
</region>

<region>
hikey=G2
hivel=127
lokey=F#2
lovel=1
lpc=pYkCQ040qMNK8oRD/Qmdwi/wjEIPyGnCRro9QMJWCkEg5ibBf/G0QJ06wz+ISD3Bu8k/QcsQzEDkpjzBMQTJQKXLdb/lexXBAwxgQM6HMEH2w7e/W/ZmP3C5gsGHeSJB
lpc_rms=-48.60
offset=12738
pitch_keycenter=F#2
sample=Basstrombone_quarter_PP_F#3.opus
tune=-35
</region>

<region>
hikey=G1
hivel=127
lokey=F#1
lovel=1
lpc=N/KtQsL7UcPWkRFDq2nWwTWk70G/nunBk9OfQDqb6D/Dva0/lu4FwakEYsDzPL1ASP++P3j4pkACVKzAZuPzPhQrOL/3+8M/b5OUwDzrm0BAiy8/6LS+P27J7cA2JINA
lpc_rms=-53.15
offset=9665
pitch_keycenter=F#1
sample=Basstrombone_quarter_PP_F#2.opus
tune=-19
</region>

<region>
hikey=F3
hivel=127
lokey=E3
lovel=1
lpc=q2w3Q3CZ5cPFsqBD+nCKwhhV4kLimZHCgjHXwaGo90A5hafA8AJfwLU4MEH8ExfB+pArQQOGhUFuWpTBTEBmQJk5gT+bI2XBGZPUP8XKn0HOmCDB69BBQELs/sDxDotA
lpc_rms=-46.32
offset=11675
pitch_keycenter=E3
sample=Basstrombone_quarter_PP_E4.opus
tune=-22
</region>

<region>
hikey=F2
hivel=127
lokey=E2
lovel=1
lpc=McnXQjScfcPqpCNDBOfswey5RELb8xLCjrTrvmk5U0BXYFE/WT/cwEP3CsDzfU+/wB7pQHg9RT9ulLLAqpv6QDXDlMA8px/AOU9NQKN8EUCaTBDAKnpWQCDaHcGwLb9A
lpc_rms=-52.08
offset=15301
pitch_keycenter=E2
sample=Basstrombone_quarter_PP_E3.opus
tune=-8
</region>

<region>
hikey=F1
hivel=127
lokey=A#0
lovel=1
lpc=ulPPQn0TicNTVVZDnqcQwqkDCELP7E7CELZaQFqoa0D/4rVA2bs/wTS5R0GJ3wq/y0CHwBqDGkHFAQrBLxdcwJmmh0AnIcg/w9tDwHxqN78/dhBBhyXXwNLtNMA27kFA
lpc_rms=-50.64
offset=12606
pitch_keycenter=E1
sample=Basstrombone_quarter_PP_E2.opus
tune=-18
</region>

<region>
hikey=D#3
hivel=127
lokey=D3
lovel=1
lpc=zLo0Q2Rd5MNfY55D3MxjwtCIzUIMrY/CUkSbwRKycEESJJHBzlxKwSjRDUEaDq/AquOcQTWujUHMRULBEulaPh+/lb++TLDB6vIjQJjBi0Ez8ne/VorUwDVkpUCsLSHA
lpc_rms=-46.78
offset=10585
pitch_keycenter=D3
sample=Basstrombone_quarter_PP_D4.opus
tune=-20
</region>

<region>
hikey=D#2
hivel=127
lokey=D2
lovel=1
lpc=f4D4QuaGncNXEVtD+/eIwZv/HULebT7CDIIhwcuNmsCJ4hJBQCzTv8KVHUBPjl5AarEIQHzd7j0ylD3AN6+VP872psASj2Y+7zSyQOiB979VWg4/cIc3Pm3MOMBeQ+U/
lpc_rms=-50.16
offset=11318
pitch_keycenter=D2
sample=Basstrombone_quarter_PP_D3.opus
</region>

<region>
hikey=C#3
hivel=127
lokey=C3
lovel=1
lpc=5Yk8Q8Hh8MMbcKxDPsmCwrst1kLVyqfCoqVxwevEx0DXDzjBthVCwO/S4ED59a6/mYx9QceznkC5DE3BX7QcQcxFAsHQjUrBQuwUQdcE8kCK9Xm/PmMowEc+x8DSJqJA
lpc_rms=-46.24
offset=11721
pitch_keycenter=C3
sample=Basstrombone_quarter_PP_C4.opus
tune=-6
</region>

<region>
hikey=C#2
hivel=127
lokey=C2
lovel=1
lpc=ifvzQiUdlcOD5URDdjwZwcYu10E9JxXCpUyTwLm2xD4WbH9AplSKv2rxAMCAJCG/uqSJQAy/lb3RjiW/mSvmPz/ZST/jUjrAdTyfv5yVO0Abd4U/VMI4wLcp+b+XOyJA
lpc_rms=-51.00
offset=10317
pitch_keycenter=C2
sample=Basstrombone_quarter_PP_C3.opus
tune=+1
</region>

<region>
hikey=D#5
hivel=127
lokey=A#3
lovel=1
lpc=yy72QtYwksMA8UtDcO/Cwq8YFUN1m4/CZmamwQQlgUD5YlPBIKCBQU/aDEHyrsvB8XGoQWjlAEHDv6DBZXgxQTfassDXnBjAFZs3P0c4vkCGiyRAaKQuwEMP1MDY14tA
lpc_rms=-48.66
offset=7352
pitch_keycenter=A#3
sample=Basstrombone_quarter_PP_A#4.opus
tune=+1
</region>

<region>
hikey=B2
hivel=127
lokey=A#2
lovel=1
lpc=feTjQpNCiMPBKTVDrRUzwqQajEJn6Q7Cu3J5wQj+zUA4/w/AnZLVwKa3oUBBqt/An/z5QHaupkBXJybBYZncQOCO5UAwsU3BT0UyQNSs2kBuRQLBsPL6QJBWJcFG4qtA
lpc_rms=-51.00
offset=10188
pitch_keycenter=A#2
sample=Basstrombone_quarter_PP_A#3.opus
tune=-11
</region>

<region>
hikey=B1
hivel=127
lokey=A#1
lovel=1
lpc=3lUAQxdimMPe/ERDL+r1wZEWVkKmzQjCwHYwwZoIdr/2PgZBf/zvwBjhfMAwjmZAH0epP+OKbj81C0nAhcvmQG3oej81Ao/Ahj0BP8gx1D+HaxW/tjH5v8s5qsBnwbZA
lpc_rms=-50.20
offset=11713
pitch_keycenter=A#1
sample=Basstrombone_quarter_PP_A#2.opus
tune=+8
</region>
</group>

<group>
group_label=MF
lpc_hicc1=84
lpc_locc1=43

<region>
hikey=A3
hivel=127
lokey=G#3
lovel=1
lpc=n4MoQzqnCsScgSlEWi3Pw0HJfkPF+mvDzLEKQw1bRsIvX7FB4mAKwg0PZkJUofvB0NbgQE41lcBEoMfBk2YfQlHHxMHQ01NBfvCCwblb1EHPzw1BEAB+wt4JWkI202rB
lpc_rms=-35.44
offset=9745
pitch_keycenter=G#3
sample=Basstrombone_quarter_MF_G#4.opus
tune=-20
</region>

<region>
hikey=A2
hivel=127
lokey=G#2
lovel=1
lpc=6mY3Q/kDEsR7sh9EsrSMw915OkMAzprDlRRxQ2uj+cL59rBC77OBwlYYUUKvuurB9D1ywdlQI0JFwLjB49cCweiBIEBOtP1BUh5UwlDWLkJWLB7BOYpIwUa99UDwZf2+
lpc_rms=-38.48
offset=9773
pitch_keycenter=G#2
sample=Basstrombone_quarter_MF_G#3.opus
tune=-14
</region>

<region>
hikey=A1
hivel=127
lokey=G#1
lovel=1
lpc=4DoKQy9M18M3melDG81Ww6Ka/kKQNBTD85osQiNN/UHvJg7Bx4NmwWetxUExI8zB40CrQZpBisGZEqbASLLhQQXtqsGrvPRAoBXowNCPakCykolAipyTv9BorsD9SlRA
lpc_rms=-42.35
offset=14047
pitch_keycenter=G#1
sample=Basstrombone_quarter_MF_G#2.opus
tune=-12
</region>

<region>
hikey=G3
hivel=127
lokey=F#3
lovel=1
lpc=bb4MQ5eb5MPNvgNEvEl/w2ZQDkPfn1/DuNAwQ9nYmMLJDZFCAWXDwrOJx0KHOajCFFwTQsFU1EGSw1vCiC05Qg8zN8KmeE1CY8u9wdJIJMEIACxBgpKawIaR/UC1zozA
lpc_rms=-39.49
offset=9382
pitch_keycenter=F#3
sample=Basstrombone_quarter_MF_F#4.opus
tune=-28
</region>

<region>
hikey=G2
hivel=127
lokey=F#2
lovel=1
lpc=G58fQ3qnAcT9vhRExVOMw11lCkM/EU3Dg1IOQ2m1SsJmq0pCifQCwncIvsABXqlALz69vfDorUF23zzCoiFKQtqHAMJFEIpBG0pEwUyV3kB5Bz7ATcYrQCxuCMC/mB0/
lpc_rms=-41.13
offset=9348
pitch_keycenter=F#2
sample=Basstrombone_quarter_MF_F#3.opus
tune=-15
</region>

<region>
hikey=G1
hivel=127
lokey=F#1
lovel=1
lpc=BXDBQlzEhsN9o4BDMYvmwmuFq0L7Ka/CPurlQdMqqEF5YEXBG0ymwWwEvUEXyojBLJ6gQRgVScG+1lnAC6FwQevmUcEAEqJAE7bDv4iDkMDn+R5BoJNJwOG2l8Cm0T5A
lpc_rms=-46.95
offset=9380
pitch_keycenter=F#1
sample=Basstrombone_quarter_MF_F#2.opus
tune=+9
</region>

<region>
hikey=F3
hivel=127
lokey=E3
lovel=1
lpc=ITdCQ3RlG8RoBC1EUFakw6i8W0P+CpfDbcw8QxMrwsJZUNNCSgWtwtzzukK87mvCk38cwshs/EHgLcpA9zQJQqMjqMGTnNfARhY+wgPDXEI03ObAVImAQaJyDMJpxW5B
lpc_rms=-38.04
offset=10455
pitch_keycenter=E3
sample=Basstrombone_quarter_MF_E4.opus
tune=-17
</region>

<region>
hikey=F2
hivel=127
lokey=E2
lovel=1
lpc=xGkTQ8X96MObjwRE6auFw8b6+kK6Ow/DIpHMQmh83cFs0AnBorKuQMeRGED0qwFBu8Ifwa0TmkB1m4bBjiWuQQMg5sAh6kZAthEgwXDEWEGIBj7BYaOeQFr/L7/cf7o+
lpc_rms=-42.82
offset=9430
pitch_keycenter=E2
sample=Basstrombone_quarter_MF_E3.opus
tune=-9
</region>

<region>
hikey=F1
hivel=127
lokey=A#0
lovel=1
lpc=PV/PQv9uk8PruYZDEdWkwtPCXUJRgpfCYfs4QTXGqEFuFjbB1UncwPJotEGlxCjB/u0EwQf9SkE0y8vAv8YvwJbBtUAkaOe/rQmswEHjq0Cb7DhAvvv/v/+sisAowzhA
lpc_rms=-48.46
offset=9618
pitch_keycenter=E1
sample=Basstrombone_quarter_MF_E2.opus
tune=-2
</region>

<region>
hikey=D#3
hivel=127
lokey=D3
lovel=1
lpc=LrdHQ3noKcRy6E1EK7LPw9aaT0M45prD8pZaQ5JajsJQi6VC9hi7wugpgELaDIfB6bApwltfWkJWMnnCAF2JQiPoST9IoTrCL2CZwFZ+6EFA9U/Ad5UqQdsjv8ErUx5B
lpc_rms=-37.95
offset=10420
pitch_keycenter=D3
sample=Basstrombone_quarter_MF_D4.opus
tune=-11
</region>

<region>
hikey=D#2
hivel=127
lokey=D2
lovel=1
lpc=9/kWQ8c/7sN9mANEv+Rmwz6lrULPydTCu/0iQtyRi0FwKgfBz45XwFkhlkHpTbvBmD6xQEiz40ANQozBZLS+QVfPbb8yc6PBtlKhQBTIhEEEKYLBrKXPQMSxtr9olJo+
lpc_rms=-43.14
offset=9541
pitch_keycenter=D2
sample=Basstrombone_quarter_MF_D3.opus
tune=+9
</region>

<region>
hikey=C#3
hivel=127
lokey=C3
lovel=1
lpc=DhtRQ2HiOMRJ225Eleb7wzJVFkNvE2nDTxxVQwLx4cFniY4/W99kwlp5K0Lve+jB3vEMQqyyhkC/1kXCfNI1QqJq78GwHcpBD8zkwENsfMG7owVBOmW2QfjC78EHiixB
lpc_rms=-37.52
offset=10053
pitch_keycenter=C3
sample=Basstrombone_quarter_MF_C4.opus
tune=-2
</region>

<region>
hikey=C#2
hivel=127
lokey=C2
lovel=1
lpc=SU8LQxGO5MNixwZEikCAw3QinEJUH8/Ce3GAQuPqiT+NGthAK9xDwSqB+UBh46XBBOeOQb5mg8Ay/DnAJnFxQSZUj8HkrIVApMFlQFN1eb+dEUTAUOa9QJHjmMCad7A/
lpc_rms=-43.81
offset=10543
pitch_keycenter=C2
sample=Basstrombone_quarter_MF_C3.opus
tune=+17
</region>

<region>
hikey=D#5
hivel=127
lokey=A#3
lovel=1
lpc=IcYcQ1Mf78MjfgZE7ImrwwiIjkOLXn3DijoHQxpEj8JhRHpC+nFzwswp6UHB0RC/Lg2cQLxsCkLeYYnCDZvMQec2xD9RbxdCcu9awuLtpkFoRqDBhQdMQgyxLcKduUpB
lpc_rms=-38.26
offset=8754
pitch_keycenter=A#3
sample=Basstrombone_quarter_MF_A#4.opus
</region>

<region>
hikey=B2
hivel=127
lokey=A#2
lovel=1
lpc=dm4UQ9+U7MMumgVE9GmMw9AkT0PM03/DP9Q3Q/bkCsP+CtpCSSYZwt7L40HDb7fB56PnwdhYUEJy1x3CRh7RQZw1lMFQeGFBBNlMwXs/skC7M29BgV6wwaLMAUHR2qs+
lpc_rms=-39.87
offset=976
pitch_keycenter=A#2
sample=Basstrombone_quarter_MF_A#3.opus
tune=-5
</region>

<region>
hikey=B1
hivel=127
lokey=A#1
lovel=1
lpc=/9sFQ+YHy8PfRdNDRsEww/hfvUJpSODC8/w9QmRc6sFA3zpCSKnfwboes0E5Y6XBMXUNPY1FKUGe50/BGmiqQYEhncF0YNpA/K3vvsGmIb80Xrc/SeO8QFj4NsGy0adA
lpc_rms=-43.40
offset=10886
pitch_keycenter=A#1
sample=Basstrombone_quarter_MF_A#2.opus
tune=+6
</region>
</group>

<group>
group_label=FF
lpc_hicc1=127
lpc_locc1=85

<region>
hikey=A3
hivel=127
lokey=G#3
lovel=1
lpc=XE6oQXkNjsIW7upCG/cKw+QlDUPKVALD2AreQjNltMK6UpJC/9ttwpryO0Is1wrCaE+2QdixQME0Zy5At82GQP49BMHz9DZBN+9kwfrlcEEO+UDBxIntQHcxUMBb3TQ/
lpc_rms=-32.16
offset=1084
pitch_keycenter=G#3
sample=Basstrombone_quarter_FF_G#4.opus
</region>

<region>
hikey=A2
hivel=127
lokey=G#2
lovel=1
lpc=SiGGQdnqQ8KUj4VCCGCBwrLwXUJPpy/C+ccBQt0wtcGaknpB3CU3wR+CDUEG7NbAz3ulQMLghsDSKjxAcPKDv/tdzL5/pG8/DWxtv0JBiD/NT4m/8uGbP3kxnb8G0BY/
lpc_rms=-32.33
offset=2186
pitch_keycenter=G#2
sample=Basstrombone_quarter_FF_G#3.opus
tune=+6
</region>

<region>
hikey=A1
hivel=127
lokey=G#1
lovel=1
lpc=veGIQViaTMIcNJBCjaiSwjRgh0KlS2rCVwZAQsFJGsKEJPlBY5PFwaG8k0EnpVHB8j4QQb1xv8BKRD1A284zP2G1M8A9y0BAMHscwGv47T9iRKa/kzuLP1flWr98+bw+
lpc_rms=-34.56
offset=1263
pitch_keycenter=G#1
sample=Basstrombone_quarter_FF_G#2.opus
tune=-1
</region>

<region>
hikey=G3
hivel=127
lokey=F#3
lovel=1
lpc=Ko+mQWkTicKYGdpCdM31wlVo7ULDYdLC/WeuQjESiMLT6k1CPQMYwqUT0EHwQ3bB+jPlQLVsoL4EKsXAXfkrQevEQcEgsi5BhwEewYj1K0EA+yLBY4vXQKXKQcCXKFI/
lpc_rms=-30.51
offset=1612
pitch_keycenter=F#3
sample=Basstrombone_quarter_FF_F#4.opus
tune=-3
</region>

<region>
hikey=G2
hivel=127
lokey=F#2
lovel=1
lpc=aUsfQRNmysGUSPBBN7TYwVYqvEHrzpXBTiNhQXIjLMHg0QtBbPzqwG0NwEDaQZjAwYJzQBR4EcCUVbk9wlCSP2mRY7+Z0OE+t7bdPVsCxr6lP7Q+alkSvA3fmb5Dvo8+
lpc_rms=-34.15
offset=1517
pitch_keycenter=F#2
sample=Basstrombone_quarter_FF_F#3.opus
tune=-3
</region>

<region>
hikey=G1
hivel=127
lokey=F#1
lovel=1
lpc=mLgxQeGx3sFcIvdB2CbJwYj1o0EG6HjBiqYtQRvz8cChGZVAgb7yv/REDT91iPy9AmULv1PlbD+1E52+PRKnvmBquz6FaY++kwUmP/HcbL8acD0/AGOdvqGnvb2LlUk+
lpc_rms=-34.78
offset=1762
pitch_keycenter=F#1
sample=Basstrombone_quarter_FF_F#2.opus
tune=+16
</region>

<region>
hikey=F3
hivel=127
lokey=E3
lovel=1
lpc=Wd54QV2LN8KzBX9C8815whwIVUJTTCrCRqEEQggQx8FTF5JBDTtlwQ9fOkFau/rAqkFoQOhP5L6lqAfAqiGWQJ62ucARUYZAYGKlvx0lib85zO8/eVIgv/3Xx76jzY4+
lpc_rms=-32.28
offset=973
pitch_keycenter=E3
sample=Basstrombone_quarter_FF_E4.opus
tune=+5
</region>

<region>
hikey=F2
hivel=127
lokey=E2
lovel=1
lpc=sztxQZOlL8I3XXBCC8RrwgakUEIzPS3CI94HQi71zMECX5lBgulowRg0MEH40ADB/TesQEMDNsDIbTY/ma5sP+s0ub8yQnM/jVY4vuLZoj3G6hm/hKrPP4vC9L+bLWU/
lpc_rms=-33.46
offset=648
pitch_keycenter=E2
sample=Basstrombone_quarter_FF_E3.opus
tune=+3
</region>

<region>
hikey=F1
hivel=127
lokey=A#0
lovel=1
lpc=wY8nQfYQ2sFzBwRCQAntwbpqxkECOZnBaPtdQT3fFsGu78NAx/JpwAMm0j+fqUe+OXltv/8o8T/urxPAGS3bP5BN274dpZW+zZrjPi32Lr79IOu9m9gRPkYDIj3FzyS9
lpc_rms=-38.96
offset=3421
pitch_keycenter=E1
sample=Basstrombone_quarter_FF_E2.opus
tune=-1
</region>

<region>
hikey=D#3
hivel=127
lokey=D3
lovel=1
lpc=mrqZQbulbsJ4OaxC/9atwroPnEI3R4TCfeZQQgPiHMIukelBo76twdRXeEG7ByPBoYjJQJ71Z8DIAq0/1n8QvdnKxD7jSaG/RXAVQGYebsDo7ZlA1cyxwPJGkEATXMi/
lpc_rms=-32.55
offset=1076
pitch_keycenter=D3
sample=Basstrombone_quarter_FF_D4.opus
tune=+5
</region>

<region>
hikey=D#2
hivel=127
lokey=D2
lovel=1
lpc=MquoQL/9IcF0uQdBMd7HwO8vp0D8F3XAVrsaQNxDp78BPkM/O7bevrB5bD2usIE+HsoMvy2aNj+RwXW/LSKSP73kOr9JGGE+updFPkwcvL5pR8Y+YfUlvihOUj61EEK+
lpc_rms=-36.18
offset=1608
pitch_keycenter=D2
sample=Basstrombone_quarter_FF_D3.opus
tune=+2
</region>

<region>
hikey=C#3
hivel=127
lokey=C3
lovel=1
lpc=HJWOQbRNVsJFtJZCG+qWwhL+h0JR7mPCPIUvQqKQAcLulcZB6HeUwRelQUEbgNzAr8YgQNe1AkB8t6zA37DNQEJ+s8ChNYdAClXav9Ue7r+/flpAkzP+v8wrCT9XQgO8
lpc_rms=-31.87
offset=998
pitch_keycenter=C3
sample=Basstrombone_quarter_FF_C4.opus
tune=+15
</region>

<region>
hikey=C#2
hivel=127
lokey=C2
lovel=1
lpc=QvjyQPm2hsE9QYdB+WJawWuaNEEiPAbBltzCQGrnjMB8ZCpAYwZrv1A9Mr5xZiQ/ybxhv0w4gT+y3Ie/uHaIP/fGC78i9TA+0hI+vp35jT6hgrK+kXHHPhArG74ijLw9
lpc_rms=-36.22
offset=1745
pitch_keycenter=C2
sample=Basstrombone_quarter_FF_C3.opus
tune=+9
</region>

<region>
hikey=D#5
hivel=127
lokey=A#3
lovel=1
lpc=Ug96QZ4YP8KuDZFCiBqhwu6mmkICEIfCBOJjQvcrPcI6mxdCaNbswUqQvkH10JPB7ZEwQVtoOMAeB7G/3UxWQFpj98AXAoJBW0q+wZr7y0GTPqrBemhIQU5XiMCYH0I/
lpc_rms=-30.16
offset=723
pitch_keycenter=A#3
sample=Basstrombone_quarter_FF_A#4.opus
tune=+11
</region>

<region>
hikey=B2
hivel=127
lokey=A#2
lovel=1
lpc=UMmOQcHOZsJL77JCmN7Bwkk+skIM9ZTCc3BtQgxeO8Lf1w9Cr7nQwbPmkUH+JT7BrtvMQLos+78jySLAs9PIQJwA8cDwC+FA3CmgwIRuJkAbrKS/7x4xP2t4Pr7igaA9
lpc_rms=-34.07
offset=1140
pitch_keycenter=A#2
sample=Basstrombone_quarter_FF_A#3.opus
tune=+8
</region>

<region>
hikey=B1
hivel=127
lokey=A#1
lovel=1
lpc=5HkbQbJ0ysGf3fpBAfnlwbDAxUGQG6LBiMt6QWIVOMHzOg5BOUPewNH+mEChcTjAzXneP2l3nb/TrQw/T/VpPg45Hr6Gz8c+4tY3v+ABcj/amn6/AFJoP8yqGr+/iJo+
lpc_rms=-34.75
offset=1900
pitch_keycenter=A#1
sample=Basstrombone_quarter_FF_A#2.opus
tune=+8
</region>
</group>